<svg xmlns="http://www.w3.org/2000/svg" viewBox="0 0 1000 500"><defs><style>.a,.b{fill:none;}.a,.d{stroke:#00a651;}.a,.b,.c,.d,.e{stroke-miterlimit:10;stroke-width:5px;}.b,.e{stroke:#1b75bc;}.c,.d,.e{fill:#fff;}.c{stroke:#231f20;}</style></defs><title>Artboard 1</title><path class="a" d="M887.08-45.4c27.08,422.26-856.93,167.45-780,563.57"/><path class="b" d="M155.79-30.36C129,56.47,185,134.94,268.73,157.36c54.57,14.61,107,9.51,161.91,3.87,38.19-3.93,83.5-16.89,121.38-3.91,66.43,22.78,82.28,95,91.23,156.58l27.54,189.24"/><circle class="c" cx="617" cy="218" r="7.5"/><circle class="d" cx="514.01" cy="239.39" r="7.5"/><circle class="e" cx="645.52" cy="328" r="7.5"/><circle class="e" cx="662.52" cy="448.75" r="7.5"/><circle class="e" cx="268.73" cy="156.86" r="7.5"/><circle class="e" cx="454" cy="158" r="7.5"/><circle class="e" cx="157.22" cy="60.61" r="7.5"/><circle class="d" cx="746.35" cy="175" r="7.5"/><circle class="d" cx="866" cy="69.11" r="7.5"/><circle class="d" cx="356.99" cy="269.67" r="7.5"/><circle class="d" cx="195.65" cy="325.33" r="7.5"/><circle class="d" cx="105.65" cy="436.67" r="7.5"/></svg>